HIERARCHY
ROOT Hips
{
	OFFSET -0.001795 -0.223333 0.028219
	CHANNELS 6 Xposition Yposition Zposition Zrotation Yrotation Xrotation 
	JOINT LeftUpLeg
	{
		OFFSET 0.069520 -0.091406 -0.006815
		CHANNELS 3 Zrotation Yrotation Xrotation
		JOINT LeftLeg
		{
			OFFSET 0.034277 -0.375199 -0.004496
			CHANNELS 3 Zrotation Yrotation Xrotation
			JOINT LeftFoot
			{
				OFFSET -0.013596 -0.397961 -0.043693
				CHANNELS 3 Zrotation Yrotation Xrotation
				JOINT LeftToe
				{
					OFFSET 0.026358 -0.055791 0.119288
					CHANNELS 3 Zrotation Yrotation Xrotation
					End Site
					{
						OFFSET 0.000000 0.000000 0.000000
					}
				}
			}
		}
	}
	JOINT RightUpLeg
	{
		OFFSET -0.067670 -0.090522 -0.004320
		CHANNELS 3 Zrotation Yrotation Xrotation
		JOINT RightLeg
		{
			OFFSET -0.038290 -0.382569 -0.008850
			CHANNELS 3 Zrotation Yrotation Xrotation
			JOINT RightFoot
			{
				OFFSET 0.015774 -0.398415 -0.042312
				CHANNELS 3 Zrotation Yrotation Xrotation
				JOINT RightToe
				{
					OFFSET -0.025372 -0.048144 0.123348
					CHANNELS 3 Zrotation Yrotation Xrotation
					End Site
					{
						OFFSET 0.000000 0.000000 0.000000
					}
				}
			}
		}
	}
	JOINT Spine
	{
		OFFSET -0.002533 0.108963 -0.026696
		CHANNELS 3 Zrotation Yrotation Xrotation
		JOINT Spine1
		{
			OFFSET 0.005487 0.135180 0.001092
			CHANNELS 3 Zrotation Yrotation Xrotation
			JOINT Spine2
			{
				OFFSET 0.001457 0.052922 0.025425
				CHANNELS 3 Zrotation Yrotation Xrotation
				JOINT Neck
				{
					OFFSET -0.002778 0.213870 -0.042857
					CHANNELS 3 Zrotation Yrotation Xrotation
					JOINT Head
					{
						OFFSET 0.005152 0.064970 0.051349
						CHANNELS 3 Zrotation Yrotation Xrotation
						End Site
						{
							OFFSET 0.000000 0.000000 0.000000
						}
					}
				}
				JOINT LeftShoulder
				{
					OFFSET 0.078845 0.121749 -0.034090
					CHANNELS 3 Zrotation Yrotation Xrotation
					JOINT LeftArm
					{
						OFFSET 0.090977 0.030469 -0.008868
						CHANNELS 3 Zrotation Yrotation Xrotation
						JOINT LeftForeArm
						{
							OFFSET 0.259612 -0.012772 -0.027456
							CHANNELS 3 Zrotation Yrotation Xrotation
							JOINT LeftHand
							{
								OFFSET 0.249234 0.008986 -0.001171
								CHANNELS 3 Zrotation Yrotation Xrotation
								End Site
								{
									OFFSET 0.000000 0.000000 0.000000
								}
							}
						}
					}
				}
				JOINT RightShoulder
				{
					OFFSET -0.081759 0.118833 -0.038615
					CHANNELS 3 Zrotation Yrotation Xrotation
					JOINT RightArm
					{
						OFFSET -0.096012 0.032551 -0.009143
						CHANNELS 3 Zrotation Yrotation Xrotation
						JOINT RightForeArm
						{
							OFFSET -0.253742 -0.013329 -0.021401
							CHANNELS 3 Zrotation Yrotation Xrotation
							JOINT RightHand
							{
								OFFSET -0.255298 0.007772 -0.005559
								CHANNELS 3 Zrotation Yrotation Xrotation
								End Site
								{
									OFFSET 0.000000 0.000000 0.000000
								}
							}
						}
					}
				}
			}
		}
	}
}
MOTION
Frames: 9
Frame Time: 0.050000
0.044529 0.937552 -0.077178 -0.910162 3.526402 11.473477 2.201752 -0.913759 -11.164778 -0.784132 0.277998 -7.840258 -2.092982 0.363171 9.266828 0.000000 0.000000 0.000000 -3.863579 1.024715 -13.056790 3.862074 -0.454572 -5.153608 -9.255947 -21.772607 12.524478 0.000000 0.000000 0.000000 3.407355 -1.385049 15.533727 -2.126407 0.845448 6.012225 3.189189 4.546666 4.426888 -2.322208 3.175328 -20.482455 0.000000 0.000000 0.000000 -24.821629 -27.348590 12.823704 -31.430600 -22.006956 1.922687 -5.942840 -87.231296 8.679030 0.000000 0.000000 0.000000 15.833920 25.971336 13.943478 29.330045 8.894984 -1.302525 -44.643642 55.241704 -20.093516 0.000000 0.000000 0.000000 
0.044085 0.936656 -0.076736 -1.007288 3.801820 10.144515 2.217008 -0.792845 -9.639148 -0.789580 0.276246 -7.832576 -2.054316 0.361227 9.025853 0.000000 0.000000 0.000000 -3.538208 0.920440 -11.293419 3.920344 -0.464793 -5.335822 -9.143519 -21.578452 11.914840 0.000000 0.000000 0.000000 2.509404 -1.157886 14.930715 -2.090993 0.826725 5.879668 2.703350 4.151094 4.949259 -2.776202 3.378037 -19.290289 0.000000 0.000000 0.000000 -25.439669 -25.748484 11.850653 -31.603816 -19.598722 1.356966 -54.795278 -84.076366 52.981914 0.000000 0.000000 0.000000 17.556059 24.352749 13.371437 31.574040 7.224572 -1.759673 -44.244047 66.914803 -25.312706 0.000000 0.000000 0.000000 
0.043209 0.935745 -0.077150 -1.170855 3.873041 9.146545 2.643691 -0.722458 -8.952241 -1.044369 0.273978 -7.378894 -2.064938 0.248385 8.795872 0.000000 0.000000 0.000000 -3.091621 0.872883 -10.342002 4.099538 -0.474959 -4.727493 -8.985670 -21.344998 10.998782 0.000000 0.000000 0.000000 1.655611 -0.933987 13.997192 -2.535775 1.050896 6.431793 2.466310 4.249923 5.188902 -2.804324 3.390396 -18.317689 0.000000 0.000000 0.000000 -26.095766 -24.756017 11.139511 -31.090455 -17.241806 0.816681 -65.911030 -80.981064 60.626627 0.000000 0.000000 0.000000 17.701468 22.978169 12.634501 34.337302 6.320921 -2.108140 -36.996623 76.682286 -24.327031 0.000000 0.000000 0.000000 
0.042081 0.934986 -0.078343 -1.559632 3.941726 8.218898 3.324284 -0.621002 -7.845467 -1.212548 0.285033 -7.682651 -2.282925 -0.012364 9.053600 0.000000 0.000000 0.000000 -2.101793 0.815422 -9.007150 3.661353 -0.450160 -5.139426 -8.653732 -20.738433 10.747232 0.000000 0.000000 0.000000 0.993532 -0.764804 13.093257 -2.807332 1.198076 6.411833 2.077677 4.254201 5.633656 -3.196741 3.623180 -17.802248 0.000000 0.000000 0.000000 -26.389155 -23.397292 10.171151 -30.976012 -15.621687 0.452187 -70.369556 -78.590552 62.505480 0.000000 0.000000 0.000000 18.695987 22.409514 12.558990 36.028399 5.921081 -2.346184 -17.208767 82.761599 -9.562881 0.000000 0.000000 0.000000 
0.040976 0.934839 -0.080093 -1.964583 3.857756 7.764595 3.907734 -0.579614 -7.473903 -1.140739 0.283263 -7.675877 -2.478989 -0.355939 9.084120 0.000000 0.000000 0.000000 -1.393351 0.792375 -8.393080 3.301391 -0.429722 -5.434973 -8.407747 -20.288366 10.715793 0.000000 0.000000 0.000000 0.251515 -0.598487 12.168470 -3.256473 1.440228 6.481063 2.097536 4.869252 5.757152 -3.330817 3.768881 -17.845553 0.000000 0.000000 0.000000 -27.395594 -22.875612 9.633001 -30.570770 -13.928475 0.151894 -73.814008 -76.686815 63.741316 0.000000 0.000000 0.000000 19.344547 22.102079 12.696929 37.227764 6.108627 -2.416764 15.121176 84.585172 19.678077 0.000000 0.000000 0.000000 
0.040177 0.934970 -0.081972 -2.376842 3.748881 7.221526 4.549713 -0.530947 -6.968973 -0.855241 0.278204 -7.825377 -3.002317 -1.017331 9.663553 0.000000 0.000000 0.000000 -0.699305 0.771704 -7.893628 3.165755 -0.422215 -5.521223 -8.358275 -20.206417 10.611786 0.000000 0.000000 0.000000 -0.102526 -0.505400 11.341993 -3.724981 1.697737 6.378896 1.904352 5.522459 5.882040 -2.495102 3.354024 -17.431429 0.000000 0.000000 0.000000 -28.080689 -22.623603 9.195876 -30.401721 -12.993175 0.035723 -70.476549 -75.749034 59.638162 0.000000 0.000000 0.000000 19.810932 22.178047 13.042928 37.891852 7.059512 -2.251806 32.218400 83.812892 35.129223 0.000000 0.000000 0.000000 
0.039827 0.935423 -0.083720 -2.505535 3.860165 6.758066 4.722876 -0.512445 -6.765024 -0.984735 0.277636 -7.642822 -3.236453 -1.374529 9.745958 0.000000 0.000000 0.000000 -0.574823 0.745346 -7.573170 3.334289 -0.432016 -5.317870 -8.332441 -20.149830 10.595143 0.000000 0.000000 0.000000 -0.419366 -0.419416 10.377832 -4.103696 1.899696 6.262903 1.623393 5.793733 6.054730 -2.488024 3.374205 -16.965586 0.000000 0.000000 0.000000 -28.935322 -22.368335 8.881133 -30.156479 -13.077388 0.112979 -65.558280 -75.511797 54.955746 0.000000 0.000000 0.000000 20.150148 22.123842 13.212292 37.771639 8.487133 -1.915223 35.379387 82.402374 37.271964 0.000000 0.000000 0.000000 
0.039713 0.936070 -0.084957 -2.796828 3.918643 6.108628 5.126800 -0.463771 -6.067710 -0.925113 0.279153 -7.827344 -3.686282 -1.914971 10.226101 0.000000 0.000000 0.000000 -0.087031 0.675468 -6.692495 3.311182 -0.433296 -5.402301 -8.306063 -20.105704 10.358151 0.000000 0.000000 0.000000 -0.559771 -0.361678 9.427630 -4.458244 2.092875 6.413192 1.452642 5.981721 6.023634 -1.896690 3.008714 -16.080297 0.000000 0.000000 0.000000 -29.349315 -22.392886 8.785628 -30.530290 -12.990993 0.145192 -60.614892 -75.173124 50.284304 0.000000 0.000000 0.000000 20.825291 22.431136 13.626791 37.435009 9.448665 -1.682071 31.788327 81.605118 33.600334 0.000000 0.000000 0.000000 
0.039652 0.936691 -0.085434 -2.959592 3.885300 5.654700 5.247110 -0.438123 -5.683279 -0.850434 0.272684 -7.629937 -3.808758 -2.251206 9.981602 0.000000 0.000000 0.000000 0.015318 0.616361 -6.064326 3.362839 -0.439795 -5.595870 -8.047625 -19.623829 10.291449 0.000000 0.000000 0.000000 -0.669077 -0.308559 8.455534 -4.668054 2.210570 6.330526 1.484351 5.947784 5.888114 -1.755428 2.898092 -15.721907 0.000000 0.000000 0.000000 -29.953911 -22.193302 8.680786 -30.628332 -13.098499 0.193936 -56.212737 -74.617547 46.110051 0.000000 0.000000 0.000000 21.441046 22.955121 14.076959 36.825268 10.589579 -1.372740 22.965076 80.314431 25.174307 0.000000 0.000000 0.000000 
